<svg xmlns="http://www.w3.org/2000/svg" xmlns:xlink="http://www.w3.org/1999/xlink" width="120" height="40" fill="#11C76F" viewBox="0 0 174 58"><g clip-path="url(#clip0_1667_5400)"><path fill="#11C76F" d="M36.318 45.476h8.053v-23.66h-8.053v23.66zm10.83-39.76h-5.415v5.46h5.415v-5.46zm-30.409 2.66H8.964v6.86h7.22c4.582 0 7.22 2.24 7.22 6.44s-2.638 6.58-7.22 6.58h-7.22v-12.88H.91v30.1h8.054v-10.36H16.6c9.304 0 14.719-5.04 14.719-13.72 0-8.12-5.277-13.02-14.58-13.02zM52.563.256H36.318v16.38h16.245V.256zm-2.638 13.58h-10.83V2.916h10.83v10.92zm47.21-5.46h-7.36v6.86h6.943c4.582 0 7.221 2.24 7.221 6.44s-2.639 6.58-7.22 6.58h-6.943v-12.88h-8.054v30.1h8.054v-10.36h7.359c9.303 0 14.718-5.04 14.718-13.72 0-8.12-5.415-13.02-14.718-13.02zm67.621 8.68l-6.943 17.64-6.942-17.64h-8.331l11.108 28.42-4.305 10.78h8.47l15.274-39.2h-8.331zm-36.102-.14c-4.859 0-8.608 1.12-12.774 3.22l2.499 5.6c2.916-1.68 5.832-2.52 8.47-2.52 3.888 0 5.832 1.68 5.832 4.76v.56h-7.776c-6.942 0-10.691 3.22-10.691 8.54 0 5.18 3.61 8.82 9.719 8.82 3.888 0 6.665-1.4 8.887-3.78v3.08h7.915v-18.48c-.278-6.02-4.583-9.8-12.081-9.8zm4.721 19.04c-.833 2.38-3.193 4.34-6.526 4.34-2.777 0-4.443-1.4-4.443-3.64s1.527-3.22 4.582-3.22h6.387v2.52zm-68.454 3.36c-3.888 0-6.665-3.08-6.665-7.7 0-4.48 2.777-7.56 6.665-7.56 2.777 0 4.86 1.12 6.387 3.08l5.416-3.92c-2.5-3.78-6.804-6.02-12.22-6.02-8.47-.14-14.301 5.74-14.301 14.42s5.832 14.42 14.302 14.42c5.831 0 10.136-2.38 12.496-6.3l-5.554-3.78c-1.388 2.24-3.61 3.36-6.526 3.36z"></path></g><defs><clipPath id="clip0_1667_5400"><path fill="#11C76F" d="M0 0H172.997V56H0z" transform="translate(.5 .256)"></path></clipPath></defs></svg>